# xmcd
#
# Track frame offsets:
#	150
#	12575
#	25247
#	36282
#	49082
#	58785
#	69857
#	78850
#	87207
#	95687
#	104977
#	115387
#
# Disc length: 1697 seconds
#
# Revision: 0
# Processed by: cddbd v1.5.1PL0 Copyright (c) Steve Scherf et al.
# Submitted via: dBpowerAMP V4.0
#
DISCID=a0069f0c
DTITLE=Conjunto São João - O Melhor de São João
DYEAR=1900
DGENRE=
TTITLE0=Noites de junho and Sonho de Papel
TTITLE1=A Bandinha do Mané and Sobe meu Balão
TTITLE2=Isto é lá com Santo Antônio
TTITLE3=O Baile começa as Nove and Prece a Santo Antônio
TTITLE4=Chegou a hora da Fogueira
TTITLE5=Capelinha de Melão and Antonio, Pedro e João
TTITLE6=O Sanfoneiro Só Tocava isso
TTITLE7=Santo Antonio não Gosta and Tim Tim o Lá Lá
TTITLE8=O Casório de Maria and A Sanfona do Mané
TTITLE9=Lá vem a Rita and O Delegado quer prender Antonio
TTITLE10=Pula a Fogueira and Dia dos Namorados
TTITLE11=Cai, Cai, Balão
EXTD=
EXTT0=
EXTT1=
EXTT2=
EXTT3=
EXTT4=
EXTT5=
EXTT6=
EXTT7=
EXTT8=
EXTT9=
EXTT10=
EXTT11=
PLAYORDER=
